<?xml version="1.0" encoding="utf-8"?>
<!-- Generator: Adobe Illustrator 18.0.0, SVG Export Plug-In . SVG Version: 6.00 Build 0)  -->
<!DOCTYPE svg PUBLIC "-//W3C//DTD SVG 1.1//EN" "http://www.w3.org/Graphics/SVG/1.1/DTD/svg11.dtd">
<svg version="1.1" id="Layer_1" xmlns="http://www.w3.org/2000/svg" xmlns:xlink="http://www.w3.org/1999/xlink" x="0px" y="0px"
	 viewBox="0 0 1728 1728" enable-background="new 0 0 1728 1728" xml:space="preserve">
<g>
	<polygon fill="#2BABE2" points="1408.8,894.2 113.2,894.2 235.4,184.8 1531,184.8 	"/>
	<polygon fill="#2BABE2" points="1531,1514.9 287.7,1514.9 409.9,805.5 1653.2,805.5 	"/>
	<g enable-background="new    ">
		<path fill="#FFFFFF" d="M528.7,440.6c0,23.5-3.8,46.6-11.3,69.5c-7.5,22.8-18.6,43.2-33.2,61.2c-14.6,17.9-32.6,32.5-53.8,43.5
			c-21.3,11.1-45.6,16.6-73.1,16.6l-17.9-1.3L310,798.2h-69.1L326,314.3c8.4-2.2,18.2-4.1,29.2-5.7c11.1-1.5,22.4-2.3,33.9-2.3
			c23.9,0,44.6,3.6,62.1,10.6c17.5,7.1,32,16.7,43.5,28.9c11.5,12.2,20,26.5,25.6,42.9C525.9,405.1,528.7,422.4,528.7,440.6z
			 M458.2,445.2c0-23.9-5.5-42.5-16.6-55.8c-11.1-13.3-25.9-19.9-44.5-19.9c-3.6,0-7.5,0.4-12,1.3l-34.6,197.4
			c1.8,0.4,3.7,0.8,5.7,1c2,0.2,4.5,0.3,7.6,0.3c15.1,0,28.5-3.4,40.2-10.3c11.7-6.9,21.6-16,29.6-27.3c8-11.3,14.1-24.5,18.3-39.5
			C456.1,477.4,458.2,461.6,458.2,445.2z"/>
		<path fill="#FFFFFF" d="M776.6,375.4H656.3l-24.6,140.2h107.7l-11.3,63.1H620.4l-27.3,154.9h120.3l-11.3,64.5H513.4L599.1,311
			h188.8L776.6,375.4z"/>
		<path fill="#FFFFFF" d="M995.9,798.2l-33.9,1.3L875.6,505l-51.8,293.1h-67.1L842.4,311l34.6-1.3L964,598.8l51.2-287.8h67.1
			L995.9,798.2z"/>
		<path fill="#FFFFFF" d="M1301,798.2l-33.9,1.3L1180.7,505l-51.8,293.1h-67.1l85.7-487.2l34.6-1.3l87.1,289.1l51.2-287.8h67.1
			L1301,798.2z"/>
	</g>
	<g enable-background="new    ">
		<path fill="#FFFFFF" d="M601.9,1418.9l-3.3-103h-93.7l-40.5,103h-67.8l200.7-490.5h49.2l23.9,490.5H601.9z M594.6,1079.9
			l-65.8,174.8h68.5L594.6,1079.9z"/>
		<path fill="#FFFFFF" d="M995.4,1061.3c0,23.5-3.8,46.6-11.3,69.5c-7.5,22.8-18.6,43.2-33.2,61.2c-14.6,17.9-32.6,32.5-53.8,43.5
			c-21.3,11.1-45.6,16.6-73.1,16.6l-17.9-1.3l-29.2,168.2h-69.1L792.7,935c8.4-2.2,18.2-4.1,29.2-5.7c11.1-1.5,22.4-2.3,33.9-2.3
			c23.9,0,44.6,3.6,62.1,10.6c17.5,7.1,32,16.7,43.5,28.9c11.5,12.2,20,26.5,25.6,42.9C992.6,1025.8,995.4,1043.1,995.4,1061.3z
			 M924.9,1065.9c0-23.9-5.5-42.5-16.6-55.8c-11.1-13.3-25.9-19.9-44.5-19.9c-3.6,0-7.5,0.4-12,1.3l-34.6,197.4
			c1.8,0.4,3.7,0.8,5.7,1c2,0.2,4.5,0.3,7.6,0.3c15.1,0,28.5-3.4,40.2-10.3c11.7-6.9,21.6-16,29.6-27.3c8-11.3,14.1-24.5,18.3-39.6
			C922.8,1098.1,924.9,1082.3,924.9,1065.9z"/>
		<path fill="#FFFFFF" d="M1267.9,1061.3c0,23.5-3.8,46.6-11.3,69.5c-7.5,22.8-18.6,43.2-33.2,61.2c-14.6,17.9-32.6,32.5-53.8,43.5
			c-21.3,11.1-45.6,16.6-73.1,16.6l-17.9-1.3l-29.2,168.2h-69.1l85.1-483.9c8.4-2.2,18.2-4.1,29.2-5.7c11.1-1.5,22.4-2.3,33.9-2.3
			c23.9,0,44.6,3.6,62.1,10.6c17.5,7.1,32,16.7,43.5,28.9c11.5,12.2,20,26.5,25.6,42.9C1265.1,1025.8,1267.9,1043.1,1267.9,1061.3z
			 M1197.4,1065.9c0-23.9-5.5-42.5-16.6-55.8c-11.1-13.3-25.9-19.9-44.5-19.9c-3.6,0-7.5,0.4-12,1.3l-34.6,197.4
			c1.8,0.4,3.7,0.8,5.7,1c2,0.2,4.5,0.3,7.6,0.3c15.1,0,28.5-3.4,40.2-10.3c11.7-6.9,21.6-16,29.6-27.3c8-11.3,14.1-24.5,18.3-39.6
			C1195.3,1098.1,1197.4,1082.3,1197.4,1065.9z"/>
		<path fill="#FFFFFF" d="M1493.9,1020.7c-11.1-10.6-22.3-18.9-33.6-24.9c-11.3-6-22.7-9-34.2-9c-9.3,0-17.5,1.7-24.6,5
			c-7.1,3.3-12.9,7.9-17.3,13.6c-4.4,5.8-7.8,12.1-10,18.9c-2.2,6.9-3.3,14.1-3.3,21.6c0,17.3,4.9,34.6,14.6,51.8
			c9.7,17.3,20.8,34.8,33.2,52.5c14.6,20.4,27.9,42.1,39.9,65.1c12,23,17.9,48.3,17.9,75.8c0,19.9-3.1,38.2-9.3,54.8
			c-6.2,16.6-14.7,30.8-25.6,42.5c-10.9,11.7-23.8,20.9-38.9,27.6c-15.1,6.6-31.7,10-49.8,10c-24.8,0-46.9-5-66.1-15
			c-19.3-10-36.5-21.4-51.5-34.2l28.6-59.8c14.2,13.3,28.1,24.3,41.9,32.9c13.7,8.6,29,13,45.9,13c16.8,0,30.6-6.4,41.2-19.3
			c10.6-12.8,16-28.8,16-47.9c0-9.7-1.6-19.2-4.6-28.3c-3.1-9.1-7.1-18.2-12-27.3c-4.9-9.1-10.3-17.9-16.3-26.6
			c-6-8.6-12.1-17.4-18.3-26.3c-6.7-10.2-13.2-20.4-19.6-30.6c-6.4-10.2-12.3-20.7-17.6-31.6c-5.3-10.8-9.5-22.5-12.6-34.9
			c-3.1-12.4-4.6-25.5-4.6-39.2c0-19,3.1-36.3,9.3-51.8c6.2-15.5,14.7-28.8,25.6-39.9c10.9-11.1,23.7-19.7,38.6-25.9
			c14.8-6.2,31.1-9.3,48.9-9.3c22.1,0,41.2,4.1,57.2,12.3c16,8.2,29,16.5,39.2,24.9L1493.9,1020.7z"/>
	</g>
</g>
</svg>
